<?xml version="1.0" encoding="UTF-8"?>
<svg id="Layer_2" data-name="Layer 2" xmlns="http://www.w3.org/2000/svg" viewBox="0 0 792.54 964.69">
  <defs>
    <style>
      .cls-1, .cls-2 {
        stroke: #fff;
        stroke-miterlimit: 10;
        stroke-width: 4px;
      }

      .cls-1, .cls-3 {
        fill: #fff;
      }

      .cls-2 {
        fill: none;
      }

      .cls-4 {
        fill: #b3a369;
        font-size: 420px;
      }

      .cls-4, .cls-5 {
        font-family: Roboto-Black, Roboto;
        font-weight: 800;
      }

      .cls-5 {
        fill: #003057;
        font-size: 509.8px;
      }
    </style>
  </defs>
  <g id="Layer_1-2" data-name="Layer 1">
    <g>
      <text class="cls-5" transform="translate(127.12 436.12) scale(1.69 1)"><tspan x="0" y="0">D</tspan></text>
      <text class="cls-5" transform="translate(127.12 826.54) scale(1.69 1)"><tspan x="0" y="0">D</tspan></text>
    </g>
    <g>
      <text class="cls-4" transform="translate(10.62 597.85)"><tspan x="0" y="0">PSE</tspan></text>
      <ellipse class="cls-3" cx="45.46" cy="312.34" rx="9.5" ry="10"/>
      <ellipse class="cls-3" cx="94.46" cy="344.34" rx="9.5" ry="10"/>
      <ellipse class="cls-3" cx="45.46" cy="583.34" rx="9.5" ry="10"/>
      <ellipse class="cls-3" cx="94.46" cy="583.34" rx="9.5" ry="10"/>
      <path class="cls-2" d="M45.96,583.34c-.04-59.48-.52-252.06-.49-269.08-.63-3.38,5.48-1.46,10.11-2.02,22.82-.18,77.41-.58,101.67-.14,24.23,0,50.4,2.26,69.94,18.41,19.48,16.32,29.39,41.19,30.08,66.15.21,23.81-12.6,52.59-30.5,69.08-17.56,15.89-43.61,20.08-67.47,21.38-25.91,1.3-86.53-.06-111.34-.77"/>
      <path class="cls-1" d="M94.46,344.34l.5,239"/>
      <path class="cls-2" d="M96.14,453.34c15.49.86,36.1,1.74,52.82,1.39,10.32-.17,17.74-1.09,27-3.23,10.83-2.24,21.13-6.41,27.8-15,3.22-3.97,5.98-8.88,8.2-13.74,3.82-8.38,6.32-16.83,5.97-26.09-.24-8.24-2.55-16.92-5.8-24.38-3.29-8.27-8.75-14.4-16.34-18.96-11.89-6.96-24.52-8.73-37.24-8.58-14.53.02-46.42,0-63.87.02"/>
      <ellipse class="cls-3" cx="45.09" cy="485.44" rx="9.5" ry="10"/>
      <ellipse class="cls-3" cx="94.09" cy="453.44" rx="9.5" ry="10"/>
      <ellipse class="cls-3" cx="308.49" cy="512.55" rx="9.5" ry="10"/>
      <ellipse class="cls-3" cx="357.49" cy="512.55" rx="9.5" ry="10"/>
      <ellipse class="cls-3" cx="472.87" cy="512.63" rx="9.5" ry="10"/>
      <ellipse class="cls-3" cx="521.87" cy="512.63" rx="9.5" ry="10"/>
      <ellipse class="cls-3" cx="470.87" cy="375.63" rx="9.5" ry="10"/>
      <ellipse class="cls-3" cx="519.87" cy="375.63" rx="9.5" ry="10"/>
      <ellipse class="cls-3" cx="317.87" cy="375.63" rx="9.5" ry="10"/>
      <ellipse class="cls-3" cx="366.87" cy="375.63" rx="9.5" ry="10"/>
      <ellipse class="cls-3" cx="582.03" cy="585.18" rx="9.5" ry="10"/>
      <ellipse class="cls-3" cx="631.03" cy="554.43" rx="9.5" ry="10"/>
      <ellipse class="cls-3" cx="582.03" cy="312.05" rx="9.5" ry="10"/>
      <ellipse class="cls-3" cx="631.03" cy="341.55" rx="9.5" ry="10"/>
      <ellipse class="cls-3" cx="761.14" cy="341.55" rx="10" ry="9.5"/>
      <ellipse class="cls-3" cx="761.14" cy="312.05" rx="10" ry="9.5"/>
      <ellipse class="cls-3" cx="741.14" cy="459.39" rx="10" ry="9.5"/>
      <ellipse class="cls-3" cx="741.14" cy="429.89" rx="10" ry="9.5"/>
      <ellipse class="cls-3" cx="761.14" cy="585.18" rx="10" ry="9.5"/>
      <ellipse class="cls-3" cx="761.14" cy="554.43" rx="10" ry="9.5"/>
      <path class="cls-1" d="M581.46,311.34v274"/>
      <path class="cls-1" d="M630.46,341.34v216"/>
      <path class="cls-1" d="M580.96,311.84h178"/>
      <path class="cls-1" d="M580.96,585.84h178"/>
      <path class="cls-1" d="M629.96,341.84h129"/>
      <path class="cls-1" d="M634.96,553.84h129"/>
      <path class="cls-1" d="M581.96,458.84h165"/>
      <path class="cls-1" d="M630.96,429.84h116"/>
      <ellipse class="cls-3" cx="582.46" cy="459.34" rx="9.5" ry="10"/>
      <ellipse class="cls-3" cx="631.46" cy="430.34" rx="9.5" ry="10"/>
      <path class="cls-2" d="M308.51,514.5c5.43,9.35,8.16,15.94,16.64,26.84,8.67,10.69,19.68,21.69,31.03,28.8,19.32,11.52,43.41,16.5,65.32,18.23,21.2,1.12,43.57-2.26,62.07-12.62,25.9-14.32,45.46-46.54,34.96-76.26-4.24-11.99-11.53-24.15-20.41-33.54-13.09-13.14-31.51-20.01-48.71-26.29-20.72-7.35-44.19-11.62-62.2-24.74-12.24-8.61-20.01-22.92-17.61-38.15,1.08-8.42,4.45-16.49,9.68-22.96,13.34-15.73,38.62-19.76,57.83-13.32,16.22,5.43,28.4,17.24,34.85,32.46"/>
      <path class="cls-2" d="M360.05,514.5c3.16,14.5,12.46,28.3,26.29,35.48,20.45,10.57,51.17,11.95,70.09-2.45,17.12-12.97,20.72-38.01,7.15-55.45-11.24-14.95-32.64-23.1-51.05-29.65-22.78-8.15-45.46-17.8-62.76-29.21-10.38-6.81-18.62-16.42-23.73-27.78-6.37-14-10.05-29.18-4.97-44.4,4.46-12.76,12.53-25.05,22.53-34,14.38-12.13,31.8-15.15,50.88-18.53,25.41-3.65,51.57-2.88,74.89,7.06,21.86,10.76,37.49,35.01,48.59,55.48"/>
    </g>
  </g>
</svg>